<?xml version="1.0" encoding="UTF-8" standalone="no"?>
<!-- Created with Inkscape (http://www.inkscape.org/) -->

<svg
   xmlns:dc="http://purl.org/dc/elements/1.1/"
   xmlns:cc="http://creativecommons.org/ns#"
   xmlns:rdf="http://www.w3.org/1999/02/22-rdf-syntax-ns#"
   xmlns:svg="http://www.w3.org/2000/svg"
   xmlns="http://www.w3.org/2000/svg"
   xmlns:sodipodi="http://sodipodi.sourceforge.net/DTD/sodipodi-0.dtd"
   xmlns:inkscape="http://www.inkscape.org/namespaces/inkscape"
   width="584.60663mm"
   height="256.55057mm"
   viewBox="0 0 584.60663 256.55057"
   version="1.1"
   id="svg8"
   inkscape:version="0.92.3 (unknown)"
   sodipodi:docname="DCXVI.svg">
  <defs
     id="defs2" />
  <sodipodi:namedview
     id="base"
     pagecolor="#ffffff"
     bordercolor="#666666"
     borderopacity="1.0"
     inkscape:pageopacity="0.0"
     inkscape:pageshadow="2"
     inkscape:zoom="0.24748737"
     inkscape:cx="1818.0474"
     inkscape:cy="854.55209"
     inkscape:document-units="mm"
     inkscape:current-layer="layer1"
     showgrid="false"
     inkscape:window-width="1366"
     inkscape:window-height="716"
     inkscape:window-x="0"
     inkscape:window-y="0"
     inkscape:window-maximized="1" />
  <metadata
     id="metadata5">
    <rdf:RDF>
      <cc:Work
         rdf:about="">
        <dc:format>image/svg+xml</dc:format>
        <dc:type
           rdf:resource="http://purl.org/dc/dcmitype/StillImage" />
        <dc:title></dc:title>
      </cc:Work>
    </rdf:RDF>
  </metadata>
  <g
     inkscape:label="Layer 1"
     inkscape:groupmode="layer"
     id="layer1"
     transform="translate(232.63754,511.77146)">
    <rect
       style="opacity:1;fill:#f0f0f0;fill-opacity:1;fill-rule:nonzero;stroke:none;stroke-width:2.03199983;stroke-linecap:square;stroke-linejoin:miter;stroke-miterlimit:4;stroke-dasharray:none;stroke-opacity:1;paint-order:fill markers stroke"
       id="rect987"
       width="111.125"
       height="111.125"
       x="113.88638"
       y="-496.49368" />
    <rect
       style="opacity:1;fill:#f0f0f0;fill-opacity:1;fill-rule:nonzero;stroke:none;stroke-width:2.18442726;stroke-linecap:square;stroke-linejoin:miter;stroke-miterlimit:4;stroke-dasharray:none;stroke-opacity:1;paint-order:fill markers stroke"
       id="rect851"
       width="100"
       height="100"
       x="-13.607143"
       y="-498.85413" />
    <text
       xml:space="preserve"
       style="font-style:normal;font-weight:normal;font-size:10.58333302px;line-height:1.25;font-family:sans-serif;letter-spacing:0px;word-spacing:0px;fill:#000000;fill-opacity:1;stroke:none;stroke-width:0.26458332"
       x="-202.21725"
       y="-476.33929"
       id="text817"><tspan
         sodipodi:role="line"
         id="tspan815"
         x="-202.21725"
         y="-476.33929"
         style="stroke-width:0.26458332">DCXVI</tspan></text>
    <text
       id="text821"
       y="-432.8569"
       x="-234.92354"
       style="font-style:normal;font-weight:normal;font-size:42.33333206px;line-height:1.25;font-family:sans-serif;letter-spacing:0px;word-spacing:0px;fill:#000000;fill-opacity:1;stroke:none;stroke-width:1.05833328"
       xml:space="preserve"><tspan
         style="font-style:normal;font-variant:normal;font-weight:normal;font-stretch:normal;font-family:'Ubuntu Mono';-inkscape-font-specification:'Ubuntu Mono';stroke-width:1.05833328"
         y="-432.8569"
         x="-234.92354"
         id="tspan819"
         sodipodi:role="line">DCXVI</tspan></text>
    <path
       inkscape:connector-curvature="0"
       id="path827"
       style="font-style:normal;font-variant:normal;font-weight:normal;font-stretch:normal;font-size:medium;line-height:1.25;font-family:'Ubuntu Mono';-inkscape-font-specification:'Ubuntu Mono';letter-spacing:0px;word-spacing:0px;fill:#8e64ce;fill-opacity:1;stroke:none;stroke-width:1.22906196"
       d="m 6.3528236,-482.97466 q 0,4.22796 -1.081574,7.17771 -1.032412,2.94975 -2.900587,4.81793 -1.819011,1.81901 -4.375461,2.65477 -2.507287,0.83577 -5.457035,0.83577 -3.0480736,0 -6.1453096,-0.73744 v -29.49749 q 3.097236,-0.73743 6.1453096,-0.73743 2.949748,0 5.457035,0.83575 2.55645,0.83577 4.375461,2.70394 1.868175,1.86817 2.900587,4.81792 1.081574,2.94975 1.081574,7.12857 z m -15.928644,11.84815 q 1.229063,0.14749 2.507287,0.14749 2.212311,0 3.932999,-0.63911 1.720686,-0.68828 2.900585,-2.11399 1.1799,-1.47488 1.819013,-3.73635 0.639112,-2.31064 0.639112,-5.50619 0,-6.19448 -2.408961,-9.09507 -2.3598,-2.90059 -7.030236,-2.90059 -0.639112,0 -1.278224,0.0491 -0.589949,0 -1.081575,0.0984 z" />
    <path
       inkscape:connector-curvature="0"
       id="path829"
       style="font-style:normal;font-variant:normal;font-weight:normal;font-stretch:normal;font-size:medium;line-height:1.25;font-family:'Ubuntu Mono';-inkscape-font-specification:'Ubuntu Mono';letter-spacing:0px;word-spacing:0px;fill:#8e64ce;fill-opacity:1;stroke:none;stroke-width:1.22906196"
       d="m 86.392857,-469.01253 q -1.720687,0.98326 -3.687186,1.42572 -1.917337,0.49162 -4.129649,0.49162 -2.703936,0 -5.014573,-0.93408 -2.261474,-0.98326 -3.932998,-2.90059 -1.671525,-1.9665 -2.654774,-4.96541 -0.934088,-2.99891 -0.934088,-7.07939 0,-3.88385 0.98325,-6.8336 1.032412,-2.94974 2.7531,-4.9654 1.720686,-2.01566 4.031323,-3.04808 2.310637,-1.03241 4.916248,-1.03241 1.819011,0 3.687186,0.49162 1.917337,0.49163 3.736348,1.62236 l -1.179899,3.34306 q -3.244724,-1.86818 -6.096148,-1.86818 -2.015662,0 -3.638023,0.88492 -1.573199,0.83577 -2.703937,2.45813 -1.130736,1.62236 -1.769849,3.88383 -0.58995,2.26149 -0.58995,5.06375 0,3.14639 0.639113,5.45703 0.688274,2.31063 1.868173,3.83468 1.1799,1.52403 2.802262,2.26147 1.671524,0.73743 3.588861,0.73743 1.425712,0 2.998912,-0.34413 1.573199,-0.3933 3.244724,-1.32739 z" />
    <path
       inkscape:connector-curvature="0"
       id="path831"
       style="font-style:normal;font-variant:normal;font-weight:normal;font-stretch:normal;font-size:medium;line-height:1.25;font-family:'Ubuntu Mono';-inkscape-font-specification:'Ubuntu Mono';letter-spacing:0px;word-spacing:0px;fill:#8e64ce;fill-opacity:1;stroke:none;stroke-width:1.28267217"
       d="m 43.267979,-432.97464 q -0.564376,-1.38528 -1.333979,-3.12972 -0.769603,-1.74443 -1.641821,-3.59148 -0.872216,-1.84705 -1.898355,-3.6941 -0.97483,-1.84705 -2.052275,-3.43756 -1.795741,2.87319 -3.591481,6.61859 -1.795742,3.6941 -3.334948,7.23427 h -4.566314 q 1.693127,-3.79671 3.95063,-8.2091 2.257504,-4.4637 4.822848,-8.56825 l -8.260409,-14.98161 h 4.668927 l 6.208133,12.15973 6.669895,-12.15973 h 4.566313 l -8.41433,14.82769 q 2.462731,4.00193 4.771542,8.31171 2.308809,4.30978 4.104551,8.61956 z" />
    <path
       inkscape:connector-curvature="0"
       id="path833"
       style="font-style:normal;font-variant:normal;font-weight:normal;font-stretch:normal;font-size:medium;line-height:1.25;font-family:'Ubuntu Mono';-inkscape-font-specification:'Ubuntu Mono';letter-spacing:0px;word-spacing:0px;fill:#8e64ce;fill-opacity:1;stroke:none;stroke-width:1.28267217"
       d="m -9.0408304,-430.61309 q 0.615683,3.23234 1.539207,7.08035 0.974831,3.7967 2.000969,7.64472 1.077445,3.79672 2.154889,7.28559 1.077445,3.48886 2.000969,6.10551 0.82091,-2.61665 1.898355,-6.15683 1.128751,-3.54017 2.206196,-7.33687 1.077444,-3.84802 2.000969,-7.64474 0.974831,-3.79671 1.590513,-6.97773 H 10.76363 q -0.410455,2.05227 -1.3339794,5.54115 -0.923524,3.43755 -2.206197,7.74733 -1.282672,4.25848 -2.873185,9.08132 -1.539207,4.77154 -3.232334,9.38916 h -5.233303 q -1.590513,-4.61762 -3.12972,-9.38916 -1.4879,-4.77154 -2.7705716,-9.03001 -1.282673,-4.30978 -2.206197,-7.79864 -0.923524,-3.48888 -1.385286,-5.54115 z" />
    <path
       inkscape:connector-curvature="0"
       id="path835"
       style="font-style:normal;font-variant:normal;font-weight:normal;font-stretch:normal;font-size:medium;line-height:1.25;font-family:'Ubuntu Mono';-inkscape-font-specification:'Ubuntu Mono';letter-spacing:0px;word-spacing:0px;fill:#8e64ce;fill-opacity:1;stroke:none;stroke-width:1.28267217"
       d="m 80.23603,-427.02161 v 24.576 h 6.156827 v 3.59148 H 69.872038 v -3.59148 h 6.156827 v -24.576 h -6.156827 v -3.59148 h 16.520819 v 3.59148 z" />
    <g
       id="g889"
       transform="matrix(0.125,0,0,0.125,-51.544344,-415.99981)"
       inkscape:export-xdpi="520.19202"
       inkscape:export-ydpi="520.19202">
      <rect
         style="opacity:1;fill:#ff0000;fill-opacity:1;fill-rule:nonzero;stroke:none;stroke-width:2.18442726;stroke-linecap:square;stroke-linejoin:miter;stroke-miterlimit:4;stroke-dasharray:none;stroke-opacity:1;paint-order:fill markers stroke"
         id="rect862"
         width="100"
         height="100"
         x="-13.607143"
         y="-498.85413" />
      <g
         id="g878"
         transform="matrix(1.058632,0,0,1.058632,103.41665,22.569393)"
         style="fill:#ffffff">
        <g
           transform="matrix(1.0969992,0,0,1.0969992,10.803459,44.866489)"
           id="g868"
           style="fill:#ffffff">
          <path
             inkscape:connector-curvature="0"
             id="path864"
             style="font-style:normal;font-variant:normal;font-weight:normal;font-stretch:normal;font-size:medium;line-height:1.25;font-family:'Ubuntu Mono';-inkscape-font-specification:'Ubuntu Mono';letter-spacing:0px;word-spacing:0px;fill:#ffffff;fill-opacity:1;stroke:none;stroke-width:1.05833328"
             d="m -69.551394,-476.21833 q 0,3.64066 -0.931333,6.18066 -0.889,2.54 -2.497667,4.14867 -1.566333,1.56633 -3.767667,2.286 -2.159,0.71967 -4.698999,0.71967 -2.624667,0 -5.291667,-0.635 v -25.4 q 2.667,-0.635 5.291667,-0.635 2.539999,0 4.698999,0.71966 2.201334,0.71967 3.767667,2.32834 1.608667,1.60866 2.497667,4.14866 0.931333,2.54 0.931333,6.13834 z m -13.716,10.20233 q 1.058334,0.127 2.159,0.127 1.905,0 3.386667,-0.55033 1.481666,-0.59267 2.497666,-1.82034 1.016,-1.27 1.566334,-3.21733 0.550333,-1.98967 0.550333,-4.74133 0,-5.334 -2.074333,-7.83167 -2.032,-2.49767 -6.053667,-2.49767 -0.550333,0 -1.100666,0.0423 -0.508,0 -0.931334,0.0847 z" />
          <path
             inkscape:connector-curvature="0"
             id="path866"
             style="font-style:normal;font-variant:normal;font-weight:normal;font-stretch:normal;font-size:medium;line-height:1.25;font-family:'Ubuntu Mono';-inkscape-font-specification:'Ubuntu Mono';letter-spacing:0px;word-spacing:0px;fill:#ffffff;fill-opacity:1;stroke:none;stroke-width:1.05833328"
             d="m -48.384728,-464.19567 q -1.481667,0.84667 -3.175,1.22767 -1.651,0.42333 -3.556,0.42333 -2.328333,0 -4.318,-0.80433 -1.947333,-0.84667 -3.386666,-2.49767 -1.439334,-1.69333 -2.286,-4.27566 -0.804334,-2.58234 -0.804334,-6.096 0,-3.34434 0.846667,-5.88434 0.889,-2.54 2.370667,-4.27566 1.481666,-1.73567 3.471333,-2.62467 1.989667,-0.889 4.233333,-0.889 1.566333,0 3.175,0.42333 1.651,0.42334 3.217333,1.397 l -1.016,2.87867 q -2.794,-1.60867 -5.249333,-1.60867 -1.735667,0 -3.132666,0.762 -1.354667,0.71967 -2.328334,2.11667 -0.973666,1.397 -1.524,3.34433 -0.508,1.94734 -0.508,4.36034 0,2.70933 0.550334,4.699 0.592666,1.98966 1.608666,3.302 1.016,1.31233 2.413,1.94733 1.439333,0.635 3.090333,0.635 1.227667,0 2.582334,-0.29633 1.354666,-0.33867 2.794,-1.143 z" />
        </g>
        <path
           d="m -56.817356,-430.31387 q -0.533118,-1.30856 -1.260097,-2.95638 -0.726979,-1.64782 -1.550889,-3.39257 -0.823909,-1.74475 -1.793215,-3.4895 -0.92084,-1.74475 -1.938611,-3.24717 -1.696284,2.71406 -3.392568,6.25202 -1.696285,3.4895 -3.150243,6.8336 h -4.31341 q 1.599354,-3.58643 3.731826,-7.75444 2.132473,-4.21648 4.555736,-8.0937 l -7.802909,-14.15186 h 4.41034 l 5.864298,11.48627 6.300485,-11.48627 h 4.313409 l -7.948305,14.00646 q 2.326333,3.78029 4.507271,7.85137 2.180937,4.07109 3.877222,8.14217 z"
           style="font-style:normal;font-variant:normal;font-weight:normal;font-stretch:normal;font-size:medium;line-height:1.25;font-family:'Ubuntu Mono';-inkscape-font-specification:'Ubuntu Mono';letter-spacing:0px;word-spacing:0px;fill:#ffffff;fill-opacity:1;stroke:none;stroke-width:1.21163177"
           id="path870"
           inkscape:connector-curvature="0" />
        <g
           transform="matrix(1.144849,0,0,1.144849,-56.480699,132.09074)"
           id="g876"
           style="fill:#ffffff">
          <path
             inkscape:connector-curvature="0"
             id="path872"
             style="font-style:normal;font-variant:normal;font-weight:normal;font-stretch:normal;font-size:medium;line-height:1.25;font-family:'Ubuntu Mono';-inkscape-font-specification:'Ubuntu Mono';letter-spacing:0px;word-spacing:0px;fill:#ffffff;fill-opacity:1;stroke:none;stroke-width:1.05833328"
             d="m -21.206727,-489.29933 q 0.508,2.667 1.27,5.842 0.804333,3.13266 1.651,6.30766 0.889,3.13267 1.778,6.01134 0.889,2.87866 1.651,5.03766 0.677333,-2.159 1.566333,-5.08 0.931333,-2.921 1.820333,-6.05366 0.889,-3.175 1.6510003,-6.30767 0.8043333,-3.13267 1.3123333,-5.75733 h 3.6406666 q -0.3386667,1.69333 -1.1006667,4.572 -0.7619999,2.83633 -1.8203332,6.39233 -1.0583333,3.51367 -2.3706663,7.493 -1.27,3.937 -2.667,7.747 h -4.318 q -1.312333,-3.81 -2.582333,-7.747 -1.227667,-3.937 -2.286,-7.45067 -1.058334,-3.556 -1.820334,-6.43466 -0.762,-2.87867 -1.143,-4.572 z" />
          <path
             inkscape:connector-curvature="0"
             id="path874"
             style="font-style:normal;font-variant:normal;font-weight:normal;font-stretch:normal;font-size:medium;line-height:1.25;font-family:'Ubuntu Mono';-inkscape-font-specification:'Ubuntu Mono';letter-spacing:0px;word-spacing:0px;fill:#ffffff;fill-opacity:1;stroke:none;stroke-width:1.05833328"
             d="m 7.9609369,-486.336 v 20.27767 h 5.0800001 v 2.96333 H -0.59039619 v -2.96333 H 4.4896037 V -486.336 h -5.07999989 v -2.96333 H 13.040937 v 2.96333 z" />
        </g>
      </g>
    </g>
    <g
       id="g979"
       style="fill:#8e64ce;fill-opacity:1">
      <path
         style="fill:#8e64ce;fill-opacity:1;stroke-width:0.26458332"
         d="m 123.1468,-413.01764 v -18.65312 h 9.26041 9.26042 v -9.12813 -9.12812 h -9.26042 -9.26041 v -18.65313 -18.65312 h 9.3927 9.39271 v 9.26041 9.26042 h 9.26042 9.26042 v 9.26042 9.26041 h 9.12812 9.12813 v -9.26041 -9.26042 h 9.26041 9.26042 v -9.26042 -9.26041 h 9.39271 9.39271 v 18.65312 18.65313 h -9.26042 -9.26042 v 9.12812 9.12813 h 9.26042 9.26042 v 18.65312 18.65313 H 169.58117 123.1468 Z m 74.08333,-9.26041 v -9.12813 h -27.64896 -27.64896 v 9.12813 9.12812 h 27.64896 27.64896 z"
         id="path985"
         inkscape:connector-curvature="0" />
      <path
         style="fill:#8e64ce;fill-opacity:1;stroke-width:0.26458332"
         d="m 123.1468,-413.01764 v -18.65312 h 9.26041 9.26042 v -9.12813 -9.12812 h -9.26042 -9.26041 v -18.65313 -18.65312 h 9.3927 9.39271 v 9.26041 9.26042 h 9.26042 9.26042 v 9.26042 9.26041 h 9.12812 9.12813 v -9.26041 -9.26042 h 9.26041 9.26042 v -9.26042 -9.26041 h 9.39271 9.39271 v 18.65312 18.65313 h -9.26042 -9.26042 v 9.12812 9.12813 h 9.26042 9.26042 v 18.65312 18.65313 H 169.58117 123.1468 Z m 74.08333,-9.26041 v -9.12813 h -27.64896 -27.64896 v 9.12813 9.12812 h 27.64896 27.64896 z"
         id="path983"
         inkscape:connector-curvature="0" />
      <path
         style="fill:#8e64ce;fill-opacity:1;stroke-width:0.26458332"
         d="m 123.1468,-413.01764 v -18.65312 h 9.26041 9.26042 v -9.12813 -9.12812 h -9.26042 -9.26041 v -18.65313 -18.65312 h 9.3927 9.39271 v 9.26041 9.26042 h 9.26042 9.26042 v 9.26042 9.26041 h 9.12812 9.12813 v -9.26041 -9.26042 h 9.26041 9.26042 v -9.26042 -9.26041 h 9.39271 9.39271 v 18.65312 18.65313 h -9.26042 -9.26042 v 9.12812 9.12813 h 9.26042 9.26042 v 18.65312 18.65313 H 169.58117 123.1468 Z m 74.08333,-9.26041 v -9.12813 h -27.64896 -27.64896 v 9.12813 9.12812 h 27.64896 27.64896 z"
         id="path981"
         inkscape:connector-curvature="0" />
    </g>
    <g
       id="g1076"
       inkscape:export-filename="/home/eud/g1076.png"
       inkscape:export-xdpi="468.11429"
       inkscape:export-ydpi="468.11429">
      <rect
         y="-454.03503"
         x="-53.245235"
         height="12.5"
         width="12.5"
         id="rect913"
         style="opacity:1;fill:#f0f0f0;fill-opacity:1;fill-rule:nonzero;stroke:none;stroke-width:0.27305341;stroke-linecap:square;stroke-linejoin:miter;stroke-miterlimit:4;stroke-dasharray:none;stroke-opacity:1;paint-order:fill markers stroke" />
      <g
         style="fill:#8e64ce;fill-opacity:1"
         transform="matrix(0.132329,0,0,0.132329,-38.617263,-388.85711)"
         id="g929">
        <g
           style="fill:#8e64ce;fill-opacity:1"
           id="g919"
           transform="matrix(1.0969992,0,0,1.0969992,10.803459,44.866489)">
          <path
             d="m -69.551394,-476.21833 q 0,3.64066 -0.931333,6.18066 -0.889,2.54 -2.497667,4.14867 -1.566333,1.56633 -3.767667,2.286 -2.159,0.71967 -4.698999,0.71967 -2.624667,0 -5.291667,-0.635 v -25.4 q 2.667,-0.635 5.291667,-0.635 2.539999,0 4.698999,0.71966 2.201334,0.71967 3.767667,2.32834 1.608667,1.60866 2.497667,4.14866 0.931333,2.54 0.931333,6.13834 z m -13.716,10.20233 q 1.058334,0.127 2.159,0.127 1.905,0 3.386667,-0.55033 1.481666,-0.59267 2.497666,-1.82034 1.016,-1.27 1.566334,-3.21733 0.550333,-1.98967 0.550333,-4.74133 0,-5.334 -2.074333,-7.83167 -2.032,-2.49767 -6.053667,-2.49767 -0.550333,0 -1.100666,0.0423 -0.508,0 -0.931334,0.0847 z"
             style="font-style:normal;font-variant:normal;font-weight:normal;font-stretch:normal;font-size:medium;line-height:1.25;font-family:'Ubuntu Mono';-inkscape-font-specification:'Ubuntu Mono';letter-spacing:0px;word-spacing:0px;fill:#8e64ce;fill-opacity:1;stroke:none;stroke-width:1.05833328"
             id="path915"
             inkscape:connector-curvature="0" />
          <path
             d="m -48.384728,-464.19567 q -1.481667,0.84667 -3.175,1.22767 -1.651,0.42333 -3.556,0.42333 -2.328333,0 -4.318,-0.80433 -1.947333,-0.84667 -3.386666,-2.49767 -1.439334,-1.69333 -2.286,-4.27566 -0.804334,-2.58234 -0.804334,-6.096 0,-3.34434 0.846667,-5.88434 0.889,-2.54 2.370667,-4.27566 1.481666,-1.73567 3.471333,-2.62467 1.989667,-0.889 4.233333,-0.889 1.566333,0 3.175,0.42333 1.651,0.42334 3.217333,1.397 l -1.016,2.87867 q -2.794,-1.60867 -5.249333,-1.60867 -1.735667,0 -3.132666,0.762 -1.354667,0.71967 -2.328334,2.11667 -0.973666,1.397 -1.524,3.34433 -0.508,1.94734 -0.508,4.36034 0,2.70933 0.550334,4.699 0.592666,1.98966 1.608666,3.302 1.016,1.31233 2.413,1.94733 1.439333,0.635 3.090333,0.635 1.227667,0 2.582334,-0.29633 1.354666,-0.33867 2.794,-1.143 z"
             style="font-style:normal;font-variant:normal;font-weight:normal;font-stretch:normal;font-size:medium;line-height:1.25;font-family:'Ubuntu Mono';-inkscape-font-specification:'Ubuntu Mono';letter-spacing:0px;word-spacing:0px;fill:#8e64ce;fill-opacity:1;stroke:none;stroke-width:1.05833328"
             id="path917"
             inkscape:connector-curvature="0" />
        </g>
        <path
           inkscape:connector-curvature="0"
           id="path921"
           style="font-style:normal;font-variant:normal;font-weight:normal;font-stretch:normal;font-size:medium;line-height:1.25;font-family:'Ubuntu Mono';-inkscape-font-specification:'Ubuntu Mono';letter-spacing:0px;word-spacing:0px;fill:#8e64ce;fill-opacity:1;stroke:none;stroke-width:1.21163177"
           d="m -56.817356,-430.31387 q -0.533118,-1.30856 -1.260097,-2.95638 -0.726979,-1.64782 -1.550889,-3.39257 -0.823909,-1.74475 -1.793215,-3.4895 -0.92084,-1.74475 -1.938611,-3.24717 -1.696284,2.71406 -3.392568,6.25202 -1.696285,3.4895 -3.150243,6.8336 h -4.31341 q 1.599354,-3.58643 3.731826,-7.75444 2.132473,-4.21648 4.555736,-8.0937 l -7.802909,-14.15186 h 4.41034 l 5.864298,11.48627 6.300485,-11.48627 h 4.313409 l -7.948305,14.00646 q 2.326333,3.78029 4.507271,7.85137 2.180937,4.07109 3.877222,8.14217 z" />
        <g
           style="fill:#8e64ce;fill-opacity:1"
           id="g927"
           transform="matrix(1.144849,0,0,1.144849,-56.480699,132.09074)">
          <path
             d="m -21.206727,-489.29933 q 0.508,2.667 1.27,5.842 0.804333,3.13266 1.651,6.30766 0.889,3.13267 1.778,6.01134 0.889,2.87866 1.651,5.03766 0.677333,-2.159 1.566333,-5.08 0.931333,-2.921 1.820333,-6.05366 0.889,-3.175 1.6510003,-6.30767 0.8043333,-3.13267 1.3123333,-5.75733 h 3.6406666 q -0.3386667,1.69333 -1.1006667,4.572 -0.7619999,2.83633 -1.8203332,6.39233 -1.0583333,3.51367 -2.3706663,7.493 -1.27,3.937 -2.667,7.747 h -4.318 q -1.312333,-3.81 -2.582333,-7.747 -1.227667,-3.937 -2.286,-7.45067 -1.058334,-3.556 -1.820334,-6.43466 -0.762,-2.87867 -1.143,-4.572 z"
             style="font-style:normal;font-variant:normal;font-weight:normal;font-stretch:normal;font-size:medium;line-height:1.25;font-family:'Ubuntu Mono';-inkscape-font-specification:'Ubuntu Mono';letter-spacing:0px;word-spacing:0px;fill:#8e64ce;fill-opacity:1;stroke:none;stroke-width:1.05833328"
             id="path923"
             inkscape:connector-curvature="0" />
          <path
             d="m 7.9609369,-486.336 v 20.27767 h 5.0800001 v 2.96333 H -0.59039619 v -2.96333 H 4.4896037 V -486.336 h -5.07999989 v -2.96333 H 13.040937 v 2.96333 z"
             style="font-style:normal;font-variant:normal;font-weight:normal;font-stretch:normal;font-size:medium;line-height:1.25;font-family:'Ubuntu Mono';-inkscape-font-specification:'Ubuntu Mono';letter-spacing:0px;word-spacing:0px;fill:#8e64ce;fill-opacity:1;stroke:none;stroke-width:1.05833328"
             id="path925"
             inkscape:connector-curvature="0" />
        </g>
      </g>
    </g>
    <rect
       y="-433.18802"
       x="-53.245235"
       height="12.5"
       width="12.5"
       id="rect942"
       style="opacity:1;fill:#8e64ce;fill-opacity:1;fill-rule:nonzero;stroke:none;stroke-width:0.27305341;stroke-linecap:square;stroke-linejoin:miter;stroke-miterlimit:4;stroke-dasharray:none;stroke-opacity:1;paint-order:fill markers stroke"
       inkscape:export-filename="/home/eud/g958.png"
       inkscape:export-xdpi="468.11429"
       inkscape:export-ydpi="468.11429" />
    <g
       style="fill:#f0f0f0;fill-opacity:1"
       transform="matrix(0.132329,0,0,0.132329,-38.617263,-368.01009)"
       id="g958"
       inkscape:export-filename="/home/eud/g958.png"
       inkscape:export-xdpi="468.11429"
       inkscape:export-ydpi="468.11429">
      <g
         style="fill:#f0f0f0;fill-opacity:1"
         id="g948"
         transform="matrix(1.0969992,0,0,1.0969992,10.803459,44.866489)">
        <path
           d="m -69.551394,-476.21833 q 0,3.64066 -0.931333,6.18066 -0.889,2.54 -2.497667,4.14867 -1.566333,1.56633 -3.767667,2.286 -2.159,0.71967 -4.698999,0.71967 -2.624667,0 -5.291667,-0.635 v -25.4 q 2.667,-0.635 5.291667,-0.635 2.539999,0 4.698999,0.71966 2.201334,0.71967 3.767667,2.32834 1.608667,1.60866 2.497667,4.14866 0.931333,2.54 0.931333,6.13834 z m -13.716,10.20233 q 1.058334,0.127 2.159,0.127 1.905,0 3.386667,-0.55033 1.481666,-0.59267 2.497666,-1.82034 1.016,-1.27 1.566334,-3.21733 0.550333,-1.98967 0.550333,-4.74133 0,-5.334 -2.074333,-7.83167 -2.032,-2.49767 -6.053667,-2.49767 -0.550333,0 -1.100666,0.0423 -0.508,0 -0.931334,0.0847 z"
           style="font-style:normal;font-variant:normal;font-weight:normal;font-stretch:normal;font-size:medium;line-height:1.25;font-family:'Ubuntu Mono';-inkscape-font-specification:'Ubuntu Mono';letter-spacing:0px;word-spacing:0px;fill:#f0f0f0;fill-opacity:1;stroke:none;stroke-width:1.05833328"
           id="path944"
           inkscape:connector-curvature="0" />
        <path
           d="m -48.384728,-464.19567 q -1.481667,0.84667 -3.175,1.22767 -1.651,0.42333 -3.556,0.42333 -2.328333,0 -4.318,-0.80433 -1.947333,-0.84667 -3.386666,-2.49767 -1.439334,-1.69333 -2.286,-4.27566 -0.804334,-2.58234 -0.804334,-6.096 0,-3.34434 0.846667,-5.88434 0.889,-2.54 2.370667,-4.27566 1.481666,-1.73567 3.471333,-2.62467 1.989667,-0.889 4.233333,-0.889 1.566333,0 3.175,0.42333 1.651,0.42334 3.217333,1.397 l -1.016,2.87867 q -2.794,-1.60867 -5.249333,-1.60867 -1.735667,0 -3.132666,0.762 -1.354667,0.71967 -2.328334,2.11667 -0.973666,1.397 -1.524,3.34433 -0.508,1.94734 -0.508,4.36034 0,2.70933 0.550334,4.699 0.592666,1.98966 1.608666,3.302 1.016,1.31233 2.413,1.94733 1.439333,0.635 3.090333,0.635 1.227667,0 2.582334,-0.29633 1.354666,-0.33867 2.794,-1.143 z"
           style="font-style:normal;font-variant:normal;font-weight:normal;font-stretch:normal;font-size:medium;line-height:1.25;font-family:'Ubuntu Mono';-inkscape-font-specification:'Ubuntu Mono';letter-spacing:0px;word-spacing:0px;fill:#f0f0f0;fill-opacity:1;stroke:none;stroke-width:1.05833328"
           id="path946"
           inkscape:connector-curvature="0" />
      </g>
      <path
         inkscape:connector-curvature="0"
         id="path950"
         style="font-style:normal;font-variant:normal;font-weight:normal;font-stretch:normal;font-size:medium;line-height:1.25;font-family:'Ubuntu Mono';-inkscape-font-specification:'Ubuntu Mono';letter-spacing:0px;word-spacing:0px;fill:#f0f0f0;fill-opacity:1;stroke:none;stroke-width:1.21163177"
         d="m -56.817356,-430.31387 q -0.533118,-1.30856 -1.260097,-2.95638 -0.726979,-1.64782 -1.550889,-3.39257 -0.823909,-1.74475 -1.793215,-3.4895 -0.92084,-1.74475 -1.938611,-3.24717 -1.696284,2.71406 -3.392568,6.25202 -1.696285,3.4895 -3.150243,6.8336 h -4.31341 q 1.599354,-3.58643 3.731826,-7.75444 2.132473,-4.21648 4.555736,-8.0937 l -7.802909,-14.15186 h 4.41034 l 5.864298,11.48627 6.300485,-11.48627 h 4.313409 l -7.948305,14.00646 q 2.326333,3.78029 4.507271,7.85137 2.180937,4.07109 3.877222,8.14217 z" />
      <g
         style="fill:#f0f0f0;fill-opacity:1"
         id="g956"
         transform="matrix(1.144849,0,0,1.144849,-56.480699,132.09074)">
        <path
           d="m -21.206727,-489.29933 q 0.508,2.667 1.27,5.842 0.804333,3.13266 1.651,6.30766 0.889,3.13267 1.778,6.01134 0.889,2.87866 1.651,5.03766 0.677333,-2.159 1.566333,-5.08 0.931333,-2.921 1.820333,-6.05366 0.889,-3.175 1.6510003,-6.30767 0.8043333,-3.13267 1.3123333,-5.75733 h 3.6406666 q -0.3386667,1.69333 -1.1006667,4.572 -0.7619999,2.83633 -1.8203332,6.39233 -1.0583333,3.51367 -2.3706663,7.493 -1.27,3.937 -2.667,7.747 h -4.318 q -1.312333,-3.81 -2.582333,-7.747 -1.227667,-3.937 -2.286,-7.45067 -1.058334,-3.556 -1.820334,-6.43466 -0.762,-2.87867 -1.143,-4.572 z"
           style="font-style:normal;font-variant:normal;font-weight:normal;font-stretch:normal;font-size:medium;line-height:1.25;font-family:'Ubuntu Mono';-inkscape-font-specification:'Ubuntu Mono';letter-spacing:0px;word-spacing:0px;fill:#f0f0f0;fill-opacity:1;stroke:none;stroke-width:1.05833328"
           id="path952"
           inkscape:connector-curvature="0" />
        <path
           d="m 7.9609369,-486.336 v 20.27767 h 5.0800001 v 2.96333 H -0.59039619 v -2.96333 H 4.4896037 V -486.336 h -5.07999989 v -2.96333 H 13.040937 v 2.96333 z"
           style="font-style:normal;font-variant:normal;font-weight:normal;font-stretch:normal;font-size:medium;line-height:1.25;font-family:'Ubuntu Mono';-inkscape-font-specification:'Ubuntu Mono';letter-spacing:0px;word-spacing:0px;fill:#f0f0f0;fill-opacity:1;stroke:none;stroke-width:1.05833328"
           id="path954"
           inkscape:connector-curvature="0" />
      </g>
    </g>
    <text
       xml:space="preserve"
       style="font-style:normal;font-weight:normal;font-size:42.33333206px;line-height:1.25;font-family:sans-serif;letter-spacing:0px;word-spacing:0px;fill:#000000;fill-opacity:1;stroke:none;stroke-width:1.05833328"
       x="249.9034"
       y="-484.97446"
       id="text962"><tspan
         sodipodi:role="line"
         id="tspan960"
         x="249.9034"
         y="-484.97446"
         style="font-style:normal;font-variant:normal;font-weight:normal;font-stretch:normal;font-family:'Ubuntu Mono';-inkscape-font-specification:'Ubuntu Mono';stroke-width:1.05833328">DCXVI</tspan></text>
    <g
       aria-label="DCXVI"
       style="font-style:normal;font-weight:normal;font-size:21.16666603px;line-height:1.25;font-family:sans-serif;letter-spacing:0px;word-spacing:0px;fill:#f0f0f0;fill-opacity:1;stroke:none;stroke-width:0.52916664"
       id="text966"
       transform="translate(-133.90204,94.078874)">
      <path
         d="m 285.72797,-498.0978 q 0,1.82033 -0.46567,3.09033 -0.4445,1.27 -1.24883,2.07434 -0.78317,0.78316 -1.88383,1.143 -1.0795,0.35983 -2.3495,0.35983 -1.31234,0 -2.64584,-0.3175 v -12.7 q 1.3335,-0.3175 2.64584,-0.3175 1.27,0 2.3495,0.35983 1.10066,0.35984 1.88383,1.16417 0.80433,0.80433 1.24883,2.07433 0.46567,1.27 0.46567,3.06917 z m -6.858,5.10117 q 0.52917,0.0635 1.0795,0.0635 0.9525,0 1.69333,-0.27517 0.74084,-0.29633 1.24884,-0.91017 0.508,-0.635 0.78316,-1.60866 0.27517,-0.99484 0.27517,-2.37067 0,-2.667 -1.03717,-3.91583 -1.016,-1.24884 -3.02683,-1.24884 -0.27517,0 -0.55033,0.0212 -0.254,0 -0.46567,0.0423 z"
         style="font-style:normal;font-variant:normal;font-weight:normal;font-stretch:normal;font-family:'Ubuntu Mono';-inkscape-font-specification:'Ubuntu Mono';fill:#f0f0f0;fill-opacity:1;stroke-width:0.52916664"
         id="path968"
         inkscape:connector-curvature="0" />
      <path
         d="m 296.3113,-492.08647 q -0.74083,0.42334 -1.5875,0.61384 -0.8255,0.21166 -1.778,0.21166 -1.16416,0 -2.159,-0.40216 -0.97366,-0.42334 -1.69333,-1.24884 -0.71967,-0.84666 -1.143,-2.13783 -0.40217,-1.29117 -0.40217,-3.048 0,-1.67217 0.42334,-2.94217 0.4445,-1.27 1.18533,-2.13783 0.74083,-0.86783 1.73567,-1.31233 0.99483,-0.4445 2.11666,-0.4445 0.78317,0 1.5875,0.21166 0.8255,0.21167 1.60867,0.6985 l -0.508,1.43934 q -1.397,-0.80434 -2.62467,-0.80434 -0.86783,0 -1.56633,0.381 -0.67733,0.35984 -1.16417,1.05834 -0.48683,0.6985 -0.762,1.67216 -0.254,0.97367 -0.254,2.18017 0,1.35467 0.27517,2.3495 0.29633,0.99483 0.80433,1.651 0.508,0.65617 1.2065,0.97367 0.71967,0.3175 1.54517,0.3175 0.61383,0 1.29117,-0.14817 0.67733,-0.16933 1.397,-0.5715 z"
         style="font-style:normal;font-variant:normal;font-weight:normal;font-stretch:normal;font-family:'Ubuntu Mono';-inkscape-font-specification:'Ubuntu Mono';fill:#f0f0f0;fill-opacity:1;stroke-width:0.52916664"
         id="path970"
         inkscape:connector-curvature="0" />
      <path
         d="m 305.28597,-491.53613 q -0.23284,-0.5715 -0.55034,-1.29117 -0.3175,-0.71967 -0.67733,-1.48167 -0.35983,-0.762 -0.78316,-1.524 -0.40217,-0.762 -0.84667,-1.41816 -0.74083,1.18533 -1.48167,2.7305 -0.74083,1.524 -1.37583,2.9845 h -1.88383 q 0.6985,-1.56634 1.62983,-3.38667 0.93133,-1.8415 1.98967,-3.53483 l -3.40784,-6.18067 h 1.92617 l 2.56117,5.0165 2.75166,-5.0165 h 1.88383 l -3.47133,6.11717 q 1.016,1.651 1.9685,3.429 0.9525,1.778 1.69333,3.556 z"
         style="font-style:normal;font-variant:normal;font-weight:normal;font-stretch:normal;font-family:'Ubuntu Mono';-inkscape-font-specification:'Ubuntu Mono';fill:#f0f0f0;fill-opacity:1;stroke-width:0.52916664"
         id="path972"
         inkscape:connector-curvature="0" />
      <path
         d="m 309.9003,-504.6383 q 0.254,1.3335 0.635,2.921 0.40217,1.56633 0.8255,3.15383 0.4445,1.56634 0.889,3.00567 0.4445,1.43933 0.8255,2.51883 0.33867,-1.0795 0.78317,-2.54 0.46567,-1.4605 0.91017,-3.02683 0.4445,-1.5875 0.8255,-3.15383 0.40216,-1.56634 0.65616,-2.87867 h 1.82034 q -0.16934,0.84667 -0.55034,2.286 -0.381,1.41817 -0.91016,3.19617 -0.52917,1.75683 -1.18534,3.7465 -0.635,1.9685 -1.3335,3.8735 h -2.159 q -0.65616,-1.905 -1.29116,-3.8735 -0.61384,-1.9685 -1.143,-3.72534 -0.52917,-1.778 -0.91017,-3.21733 -0.381,-1.43933 -0.5715,-2.286 z"
         style="font-style:normal;font-variant:normal;font-weight:normal;font-stretch:normal;font-family:'Ubuntu Mono';-inkscape-font-specification:'Ubuntu Mono';fill:#f0f0f0;fill-opacity:1;stroke-width:0.52916664"
         id="path974"
         inkscape:connector-curvature="0" />
      <path
         d="m 324.48413,-503.15663 v 10.13883 h 2.54 v 1.48167 h -6.81566 v -1.48167 h 2.54 v -10.13883 h -2.54 v -1.48167 h 6.81566 v 1.48167 z"
         style="font-style:normal;font-variant:normal;font-weight:normal;font-stretch:normal;font-family:'Ubuntu Mono';-inkscape-font-specification:'Ubuntu Mono';fill:#f0f0f0;fill-opacity:1;stroke-width:0.52916664"
         id="path976"
         inkscape:connector-curvature="0" />
    </g>
    <g
       id="g1041"
       transform="translate(22.430296,130.14779)">
      <rect
         style="opacity:1;fill:#f0f0f0;fill-opacity:1;fill-rule:nonzero;stroke:none;stroke-width:2.03199983;stroke-linecap:square;stroke-linejoin:miter;stroke-miterlimit:4;stroke-dasharray:none;stroke-opacity:1;paint-order:fill markers stroke"
         id="rect1008"
         width="111.125"
         height="111.125"
         x="113.88638"
         y="-496.49368" />
      <g
         id="g1016"
         style="fill:#8e64ce;fill-opacity:1">
        <path
           style="fill:#8e64ce;fill-opacity:1;stroke-width:0.26458332"
           d="m 123.1468,-413.01764 v -18.65312 h 9.26041 9.26042 v -9.12813 -9.12812 h -9.26042 -9.26041 v -18.65313 -18.65312 h 9.3927 9.39271 v 9.26041 9.26042 h 9.26042 9.26042 v 9.26042 9.26041 h 9.12812 9.12813 v -9.26041 -9.26042 h 9.26041 9.26042 v -9.26042 -9.26041 h 9.39271 9.39271 v 18.65312 18.65313 h -9.26042 -9.26042 v 9.12812 9.12813 h 9.26042 9.26042 v 18.65312 18.65313 H 169.58117 123.1468 Z m 74.08333,-9.26041 v -9.12813 h -27.64896 -27.64896 v 9.12813 9.12812 h 27.64896 27.64896 z"
           id="path1010"
           inkscape:connector-curvature="0" />
        <path
           style="fill:#8e64ce;fill-opacity:1;stroke-width:0.26458332"
           d="m 123.1468,-413.01764 v -18.65312 h 9.26041 9.26042 v -9.12813 -9.12812 h -9.26042 -9.26041 v -18.65313 -18.65312 h 9.3927 9.39271 v 9.26041 9.26042 h 9.26042 9.26042 v 9.26042 9.26041 h 9.12812 9.12813 v -9.26041 -9.26042 h 9.26041 9.26042 v -9.26042 -9.26041 h 9.39271 9.39271 v 18.65312 18.65313 h -9.26042 -9.26042 v 9.12812 9.12813 h 9.26042 9.26042 v 18.65312 18.65313 H 169.58117 123.1468 Z m 74.08333,-9.26041 v -9.12813 h -27.64896 -27.64896 v 9.12813 9.12812 h 27.64896 27.64896 z"
           id="path1012"
           inkscape:connector-curvature="0" />
        <path
           style="fill:#8e64ce;fill-opacity:1;stroke-width:0.26458332"
           d="m 123.1468,-413.01764 v -18.65312 h 9.26041 9.26042 v -9.12813 -9.12812 h -9.26042 -9.26041 v -18.65313 -18.65312 h 9.3927 9.39271 v 9.26041 9.26042 h 9.26042 9.26042 v 9.26042 9.26041 h 9.12812 9.12813 v -9.26041 -9.26042 h 9.26041 9.26042 v -9.26042 -9.26041 h 9.39271 9.39271 v 18.65312 18.65313 h -9.26042 -9.26042 v 9.12812 9.12813 h 9.26042 9.26042 v 18.65312 18.65313 H 169.58117 123.1468 Z m 74.08333,-9.26041 v -9.12813 h -27.64896 -27.64896 v 9.12813 9.12812 h 27.64896 27.64896 z"
           id="path1014"
           inkscape:connector-curvature="0" />
      </g>
      <g
         aria-label="DCXVI"
         style="font-style:normal;font-weight:normal;font-size:21.16666603px;line-height:1.25;font-family:sans-serif;letter-spacing:0px;word-spacing:0px;fill:#f0f0f0;fill-opacity:1;stroke:none;stroke-width:0.52916664"
         id="g1028"
         transform="translate(-133.90204,94.078874)">
        <path
           d="m 285.72797,-498.0978 q 0,1.82033 -0.46567,3.09033 -0.4445,1.27 -1.24883,2.07434 -0.78317,0.78316 -1.88383,1.143 -1.0795,0.35983 -2.3495,0.35983 -1.31234,0 -2.64584,-0.3175 v -12.7 q 1.3335,-0.3175 2.64584,-0.3175 1.27,0 2.3495,0.35983 1.10066,0.35984 1.88383,1.16417 0.80433,0.80433 1.24883,2.07433 0.46567,1.27 0.46567,3.06917 z m -6.858,5.10117 q 0.52917,0.0635 1.0795,0.0635 0.9525,0 1.69333,-0.27517 0.74084,-0.29633 1.24884,-0.91017 0.508,-0.635 0.78316,-1.60866 0.27517,-0.99484 0.27517,-2.37067 0,-2.667 -1.03717,-3.91583 -1.016,-1.24884 -3.02683,-1.24884 -0.27517,0 -0.55033,0.0212 -0.254,0 -0.46567,0.0423 z"
           style="font-style:normal;font-variant:normal;font-weight:normal;font-stretch:normal;font-family:'Ubuntu Mono';-inkscape-font-specification:'Ubuntu Mono';fill:#f0f0f0;fill-opacity:1;stroke-width:0.52916664"
           id="path1018"
           inkscape:connector-curvature="0" />
        <path
           d="m 296.3113,-492.08647 q -0.74083,0.42334 -1.5875,0.61384 -0.8255,0.21166 -1.778,0.21166 -1.16416,0 -2.159,-0.40216 -0.97366,-0.42334 -1.69333,-1.24884 -0.71967,-0.84666 -1.143,-2.13783 -0.40217,-1.29117 -0.40217,-3.048 0,-1.67217 0.42334,-2.94217 0.4445,-1.27 1.18533,-2.13783 0.74083,-0.86783 1.73567,-1.31233 0.99483,-0.4445 2.11666,-0.4445 0.78317,0 1.5875,0.21166 0.8255,0.21167 1.60867,0.6985 l -0.508,1.43934 q -1.397,-0.80434 -2.62467,-0.80434 -0.86783,0 -1.56633,0.381 -0.67733,0.35984 -1.16417,1.05834 -0.48683,0.6985 -0.762,1.67216 -0.254,0.97367 -0.254,2.18017 0,1.35467 0.27517,2.3495 0.29633,0.99483 0.80433,1.651 0.508,0.65617 1.2065,0.97367 0.71967,0.3175 1.54517,0.3175 0.61383,0 1.29117,-0.14817 0.67733,-0.16933 1.397,-0.5715 z"
           style="font-style:normal;font-variant:normal;font-weight:normal;font-stretch:normal;font-family:'Ubuntu Mono';-inkscape-font-specification:'Ubuntu Mono';fill:#f0f0f0;fill-opacity:1;stroke-width:0.52916664"
           id="path1020"
           inkscape:connector-curvature="0" />
        <path
           d="m 305.28597,-491.53613 q -0.23284,-0.5715 -0.55034,-1.29117 -0.3175,-0.71967 -0.67733,-1.48167 -0.35983,-0.762 -0.78316,-1.524 -0.40217,-0.762 -0.84667,-1.41816 -0.74083,1.18533 -1.48167,2.7305 -0.74083,1.524 -1.37583,2.9845 h -1.88383 q 0.6985,-1.56634 1.62983,-3.38667 0.93133,-1.8415 1.98967,-3.53483 l -3.40784,-6.18067 h 1.92617 l 2.56117,5.0165 2.75166,-5.0165 h 1.88383 l -3.47133,6.11717 q 1.016,1.651 1.9685,3.429 0.9525,1.778 1.69333,3.556 z"
           style="font-style:normal;font-variant:normal;font-weight:normal;font-stretch:normal;font-family:'Ubuntu Mono';-inkscape-font-specification:'Ubuntu Mono';fill:#f0f0f0;fill-opacity:1;stroke-width:0.52916664"
           id="path1022"
           inkscape:connector-curvature="0" />
        <path
           d="m 309.9003,-504.6383 q 0.254,1.3335 0.635,2.921 0.40217,1.56633 0.8255,3.15383 0.4445,1.56634 0.889,3.00567 0.4445,1.43933 0.8255,2.51883 0.33867,-1.0795 0.78317,-2.54 0.46567,-1.4605 0.91017,-3.02683 0.4445,-1.5875 0.8255,-3.15383 0.40216,-1.56634 0.65616,-2.87867 h 1.82034 q -0.16934,0.84667 -0.55034,2.286 -0.381,1.41817 -0.91016,3.19617 -0.52917,1.75683 -1.18534,3.7465 -0.635,1.9685 -1.3335,3.8735 h -2.159 q -0.65616,-1.905 -1.29116,-3.8735 -0.61384,-1.9685 -1.143,-3.72534 -0.52917,-1.778 -0.91017,-3.21733 -0.381,-1.43933 -0.5715,-2.286 z"
           style="font-style:normal;font-variant:normal;font-weight:normal;font-stretch:normal;font-family:'Ubuntu Mono';-inkscape-font-specification:'Ubuntu Mono';fill:#f0f0f0;fill-opacity:1;stroke-width:0.52916664"
           id="path1024"
           inkscape:connector-curvature="0" />
        <path
           d="m 324.48413,-503.15663 v 10.13883 h 2.54 v 1.48167 h -6.81566 v -1.48167 h 2.54 v -10.13883 h -2.54 v -1.48167 h 6.81566 v 1.48167 z"
           style="font-style:normal;font-variant:normal;font-weight:normal;font-stretch:normal;font-family:'Ubuntu Mono';-inkscape-font-specification:'Ubuntu Mono';fill:#f0f0f0;fill-opacity:1;stroke-width:0.52916664"
           id="path1026"
           inkscape:connector-curvature="0" />
      </g>
    </g>
    <g
       transform="matrix(0.125,0,0,0.125,56.594328,-282.11421)"
       id="g1065"
       inkscape:export-filename="/home/eud/g1065.png"
       inkscape:export-xdpi="468.11429"
       inkscape:export-ydpi="468.11429">
      <rect
         y="-496.49368"
         x="113.88638"
         height="111.125"
         width="111.125"
         id="rect1043"
         style="opacity:1;fill:#f0f0f0;fill-opacity:1;fill-rule:nonzero;stroke:none;stroke-width:2.03199983;stroke-linecap:square;stroke-linejoin:miter;stroke-miterlimit:4;stroke-dasharray:none;stroke-opacity:1;paint-order:fill markers stroke" />
      <g
         style="fill:#8e64ce;fill-opacity:1"
         id="g1051">
        <path
           inkscape:connector-curvature="0"
           id="path1045"
           d="m 123.1468,-413.01764 v -18.65312 h 9.26041 9.26042 v -9.12813 -9.12812 h -9.26042 -9.26041 v -18.65313 -18.65312 h 9.3927 9.39271 v 9.26041 9.26042 h 9.26042 9.26042 v 9.26042 9.26041 h 9.12812 9.12813 v -9.26041 -9.26042 h 9.26041 9.26042 v -9.26042 -9.26041 h 9.39271 9.39271 v 18.65312 18.65313 h -9.26042 -9.26042 v 9.12812 9.12813 h 9.26042 9.26042 v 18.65312 18.65313 H 169.58117 123.1468 Z m 74.08333,-9.26041 v -9.12813 h -27.64896 -27.64896 v 9.12813 9.12812 h 27.64896 27.64896 z"
           style="fill:#8e64ce;fill-opacity:1;stroke-width:0.26458332" />
        <path
           inkscape:connector-curvature="0"
           id="path1047"
           d="m 123.1468,-413.01764 v -18.65312 h 9.26041 9.26042 v -9.12813 -9.12812 h -9.26042 -9.26041 v -18.65313 -18.65312 h 9.3927 9.39271 v 9.26041 9.26042 h 9.26042 9.26042 v 9.26042 9.26041 h 9.12812 9.12813 v -9.26041 -9.26042 h 9.26041 9.26042 v -9.26042 -9.26041 h 9.39271 9.39271 v 18.65312 18.65313 h -9.26042 -9.26042 v 9.12812 9.12813 h 9.26042 9.26042 v 18.65312 18.65313 H 169.58117 123.1468 Z m 74.08333,-9.26041 v -9.12813 h -27.64896 -27.64896 v 9.12813 9.12812 h 27.64896 27.64896 z"
           style="fill:#8e64ce;fill-opacity:1;stroke-width:0.26458332" />
        <path
           inkscape:connector-curvature="0"
           id="path1049"
           d="m 123.1468,-413.01764 v -18.65312 h 9.26041 9.26042 v -9.12813 -9.12812 h -9.26042 -9.26041 v -18.65313 -18.65312 h 9.3927 9.39271 v 9.26041 9.26042 h 9.26042 9.26042 v 9.26042 9.26041 h 9.12812 9.12813 v -9.26041 -9.26042 h 9.26041 9.26042 v -9.26042 -9.26041 h 9.39271 9.39271 v 18.65312 18.65313 h -9.26042 -9.26042 v 9.12812 9.12813 h 9.26042 9.26042 v 18.65312 18.65313 H 169.58117 123.1468 Z m 74.08333,-9.26041 v -9.12813 h -27.64896 -27.64896 v 9.12813 9.12812 h 27.64896 27.64896 z"
           style="fill:#8e64ce;fill-opacity:1;stroke-width:0.26458332" />
      </g>
      <g
         transform="translate(-133.90204,94.078874)"
         id="g1063"
         style="font-style:normal;font-weight:normal;font-size:21.16666603px;line-height:1.25;font-family:sans-serif;letter-spacing:0px;word-spacing:0px;fill:#f0f0f0;fill-opacity:1;stroke:none;stroke-width:0.52916664"
         aria-label="DCXVI">
        <path
           inkscape:connector-curvature="0"
           id="path1053"
           style="font-style:normal;font-variant:normal;font-weight:normal;font-stretch:normal;font-family:'Ubuntu Mono';-inkscape-font-specification:'Ubuntu Mono';fill:#f0f0f0;fill-opacity:1;stroke-width:0.52916664"
           d="m 285.72797,-498.0978 q 0,1.82033 -0.46567,3.09033 -0.4445,1.27 -1.24883,2.07434 -0.78317,0.78316 -1.88383,1.143 -1.0795,0.35983 -2.3495,0.35983 -1.31234,0 -2.64584,-0.3175 v -12.7 q 1.3335,-0.3175 2.64584,-0.3175 1.27,0 2.3495,0.35983 1.10066,0.35984 1.88383,1.16417 0.80433,0.80433 1.24883,2.07433 0.46567,1.27 0.46567,3.06917 z m -6.858,5.10117 q 0.52917,0.0635 1.0795,0.0635 0.9525,0 1.69333,-0.27517 0.74084,-0.29633 1.24884,-0.91017 0.508,-0.635 0.78316,-1.60866 0.27517,-0.99484 0.27517,-2.37067 0,-2.667 -1.03717,-3.91583 -1.016,-1.24884 -3.02683,-1.24884 -0.27517,0 -0.55033,0.0212 -0.254,0 -0.46567,0.0423 z" />
        <path
           inkscape:connector-curvature="0"
           id="path1055"
           style="font-style:normal;font-variant:normal;font-weight:normal;font-stretch:normal;font-family:'Ubuntu Mono';-inkscape-font-specification:'Ubuntu Mono';fill:#f0f0f0;fill-opacity:1;stroke-width:0.52916664"
           d="m 296.3113,-492.08647 q -0.74083,0.42334 -1.5875,0.61384 -0.8255,0.21166 -1.778,0.21166 -1.16416,0 -2.159,-0.40216 -0.97366,-0.42334 -1.69333,-1.24884 -0.71967,-0.84666 -1.143,-2.13783 -0.40217,-1.29117 -0.40217,-3.048 0,-1.67217 0.42334,-2.94217 0.4445,-1.27 1.18533,-2.13783 0.74083,-0.86783 1.73567,-1.31233 0.99483,-0.4445 2.11666,-0.4445 0.78317,0 1.5875,0.21166 0.8255,0.21167 1.60867,0.6985 l -0.508,1.43934 q -1.397,-0.80434 -2.62467,-0.80434 -0.86783,0 -1.56633,0.381 -0.67733,0.35984 -1.16417,1.05834 -0.48683,0.6985 -0.762,1.67216 -0.254,0.97367 -0.254,2.18017 0,1.35467 0.27517,2.3495 0.29633,0.99483 0.80433,1.651 0.508,0.65617 1.2065,0.97367 0.71967,0.3175 1.54517,0.3175 0.61383,0 1.29117,-0.14817 0.67733,-0.16933 1.397,-0.5715 z" />
        <path
           inkscape:connector-curvature="0"
           id="path1057"
           style="font-style:normal;font-variant:normal;font-weight:normal;font-stretch:normal;font-family:'Ubuntu Mono';-inkscape-font-specification:'Ubuntu Mono';fill:#f0f0f0;fill-opacity:1;stroke-width:0.52916664"
           d="m 305.28597,-491.53613 q -0.23284,-0.5715 -0.55034,-1.29117 -0.3175,-0.71967 -0.67733,-1.48167 -0.35983,-0.762 -0.78316,-1.524 -0.40217,-0.762 -0.84667,-1.41816 -0.74083,1.18533 -1.48167,2.7305 -0.74083,1.524 -1.37583,2.9845 h -1.88383 q 0.6985,-1.56634 1.62983,-3.38667 0.93133,-1.8415 1.98967,-3.53483 l -3.40784,-6.18067 h 1.92617 l 2.56117,5.0165 2.75166,-5.0165 h 1.88383 l -3.47133,6.11717 q 1.016,1.651 1.9685,3.429 0.9525,1.778 1.69333,3.556 z" />
        <path
           inkscape:connector-curvature="0"
           id="path1059"
           style="font-style:normal;font-variant:normal;font-weight:normal;font-stretch:normal;font-family:'Ubuntu Mono';-inkscape-font-specification:'Ubuntu Mono';fill:#f0f0f0;fill-opacity:1;stroke-width:0.52916664"
           d="m 309.9003,-504.6383 q 0.254,1.3335 0.635,2.921 0.40217,1.56633 0.8255,3.15383 0.4445,1.56634 0.889,3.00567 0.4445,1.43933 0.8255,2.51883 0.33867,-1.0795 0.78317,-2.54 0.46567,-1.4605 0.91017,-3.02683 0.4445,-1.5875 0.8255,-3.15383 0.40216,-1.56634 0.65616,-2.87867 h 1.82034 q -0.16934,0.84667 -0.55034,2.286 -0.381,1.41817 -0.91016,3.19617 -0.52917,1.75683 -1.18534,3.7465 -0.635,1.9685 -1.3335,3.8735 h -2.159 q -0.65616,-1.905 -1.29116,-3.8735 -0.61384,-1.9685 -1.143,-3.72534 -0.52917,-1.778 -0.91017,-3.21733 -0.381,-1.43933 -0.5715,-2.286 z" />
        <path
           inkscape:connector-curvature="0"
           id="path1061"
           style="font-style:normal;font-variant:normal;font-weight:normal;font-stretch:normal;font-family:'Ubuntu Mono';-inkscape-font-specification:'Ubuntu Mono';fill:#f0f0f0;fill-opacity:1;stroke-width:0.52916664"
           d="m 324.48413,-503.15663 v 10.13883 h 2.54 v 1.48167 h -6.81566 v -1.48167 h 2.54 v -10.13883 h -2.54 v -1.48167 h 6.81566 v 1.48167 z" />
      </g>
    </g>
    <g
       id="g1096"
       transform="matrix(0.125,0,0,0.125,-78.805835,-392.21283)"
       inkscape:export-filename="/home/eud/g1096.png"
       inkscape:export-xdpi="468.11429"
       inkscape:export-ydpi="468.11429">
      <rect
         style="opacity:1;fill:#f0f0f0;fill-opacity:1;fill-rule:nonzero;stroke:none;stroke-width:2.18442726;stroke-linecap:square;stroke-linejoin:miter;stroke-miterlimit:4;stroke-dasharray:none;stroke-opacity:1;paint-order:fill markers stroke"
         id="rect1078"
         width="100"
         height="100"
         x="-13.607143"
         y="-498.85413" />
      <path
         inkscape:connector-curvature="0"
         id="path1080"
         style="font-style:normal;font-variant:normal;font-weight:normal;font-stretch:normal;font-size:medium;line-height:1.25;font-family:'Ubuntu Mono';-inkscape-font-specification:'Ubuntu Mono';letter-spacing:0px;word-spacing:0px;fill:#8e64ce;fill-opacity:1;stroke:none;stroke-width:1.22906196"
         d="m 6.3528236,-482.97466 q 0,4.22796 -1.081574,7.17771 -1.032412,2.94975 -2.900587,4.81793 -1.819011,1.81901 -4.375461,2.65477 -2.507287,0.83577 -5.457035,0.83577 -3.0480736,0 -6.1453096,-0.73744 v -29.49749 q 3.097236,-0.73743 6.1453096,-0.73743 2.949748,0 5.457035,0.83575 2.55645,0.83577 4.375461,2.70394 1.868175,1.86817 2.900587,4.81792 1.081574,2.94975 1.081574,7.12857 z m -15.928644,11.84815 q 1.229063,0.14749 2.507287,0.14749 2.212311,0 3.932999,-0.63911 1.720686,-0.68828 2.900585,-2.11399 1.1799,-1.47488 1.819013,-3.73635 0.639112,-2.31064 0.639112,-5.50619 0,-6.19448 -2.408961,-9.09507 -2.3598,-2.90059 -7.030236,-2.90059 -0.639112,0 -1.278224,0.0491 -0.589949,0 -1.081575,0.0984 z" />
      <path
         inkscape:connector-curvature="0"
         id="path1082"
         style="font-style:normal;font-variant:normal;font-weight:normal;font-stretch:normal;font-size:medium;line-height:1.25;font-family:'Ubuntu Mono';-inkscape-font-specification:'Ubuntu Mono';letter-spacing:0px;word-spacing:0px;fill:#8e64ce;fill-opacity:1;stroke:none;stroke-width:1.22906196"
         d="m 86.392857,-469.01253 q -1.720687,0.98326 -3.687186,1.42572 -1.917337,0.49162 -4.129649,0.49162 -2.703936,0 -5.014573,-0.93408 -2.261474,-0.98326 -3.932998,-2.90059 -1.671525,-1.9665 -2.654774,-4.96541 -0.934088,-2.99891 -0.934088,-7.07939 0,-3.88385 0.98325,-6.8336 1.032412,-2.94974 2.7531,-4.9654 1.720686,-2.01566 4.031323,-3.04808 2.310637,-1.03241 4.916248,-1.03241 1.819011,0 3.687186,0.49162 1.917337,0.49163 3.736348,1.62236 l -1.179899,3.34306 q -3.244724,-1.86818 -6.096148,-1.86818 -2.015662,0 -3.638023,0.88492 -1.573199,0.83577 -2.703937,2.45813 -1.130736,1.62236 -1.769849,3.88383 -0.58995,2.26149 -0.58995,5.06375 0,3.14639 0.639113,5.45703 0.688274,2.31063 1.868173,3.83468 1.1799,1.52403 2.802262,2.26147 1.671524,0.73743 3.588861,0.73743 1.425712,0 2.998912,-0.34413 1.573199,-0.3933 3.244724,-1.32739 z" />
      <path
         inkscape:connector-curvature="0"
         id="path1084"
         style="font-style:normal;font-variant:normal;font-weight:normal;font-stretch:normal;font-size:medium;line-height:1.25;font-family:'Ubuntu Mono';-inkscape-font-specification:'Ubuntu Mono';letter-spacing:0px;word-spacing:0px;fill:#8e64ce;fill-opacity:1;stroke:none;stroke-width:1.28267217"
         d="m 43.267979,-432.97464 q -0.564376,-1.38528 -1.333979,-3.12972 -0.769603,-1.74443 -1.641821,-3.59148 -0.872216,-1.84705 -1.898355,-3.6941 -0.97483,-1.84705 -2.052275,-3.43756 -1.795741,2.87319 -3.591481,6.61859 -1.795742,3.6941 -3.334948,7.23427 h -4.566314 q 1.693127,-3.79671 3.95063,-8.2091 2.257504,-4.4637 4.822848,-8.56825 l -8.260409,-14.98161 h 4.668927 l 6.208133,12.15973 6.669895,-12.15973 h 4.566313 l -8.41433,14.82769 q 2.462731,4.00193 4.771542,8.31171 2.308809,4.30978 4.104551,8.61956 z" />
      <path
         inkscape:connector-curvature="0"
         id="path1086"
         style="font-style:normal;font-variant:normal;font-weight:normal;font-stretch:normal;font-size:medium;line-height:1.25;font-family:'Ubuntu Mono';-inkscape-font-specification:'Ubuntu Mono';letter-spacing:0px;word-spacing:0px;fill:#8e64ce;fill-opacity:1;stroke:none;stroke-width:1.28267217"
         d="m -9.0408304,-430.61309 q 0.615683,3.23234 1.539207,7.08035 0.974831,3.7967 2.000969,7.64472 1.077445,3.79672 2.154889,7.28559 1.077445,3.48886 2.000969,6.10551 0.82091,-2.61665 1.898355,-6.15683 1.128751,-3.54017 2.206196,-7.33687 1.077444,-3.84802 2.000969,-7.64474 0.974831,-3.79671 1.590513,-6.97773 H 10.76363 q -0.410455,2.05227 -1.3339794,5.54115 -0.923524,3.43755 -2.206197,7.74733 -1.282672,4.25848 -2.873185,9.08132 -1.539207,4.77154 -3.232334,9.38916 h -5.233303 q -1.590513,-4.61762 -3.12972,-9.38916 -1.4879,-4.77154 -2.7705716,-9.03001 -1.282673,-4.30978 -2.206197,-7.79864 -0.923524,-3.48888 -1.385286,-5.54115 z" />
      <path
         inkscape:connector-curvature="0"
         id="path1088"
         style="font-style:normal;font-variant:normal;font-weight:normal;font-stretch:normal;font-size:medium;line-height:1.25;font-family:'Ubuntu Mono';-inkscape-font-specification:'Ubuntu Mono';letter-spacing:0px;word-spacing:0px;fill:#8e64ce;fill-opacity:1;stroke:none;stroke-width:1.28267217"
         d="m 80.23603,-427.02161 v 24.576 h 6.156827 v 3.59148 H 69.872038 v -3.59148 h 6.156827 v -24.576 h -6.156827 v -3.59148 h 16.520819 v 3.59148 z" />
    </g>
    <g
       aria-label="DCXVI"
       transform="scale(0.52352385,1.9101326)"
       style="font-style:normal;font-weight:normal;font-size:81.04084778px;line-height:1.25;font-family:sans-serif;letter-spacing:0px;word-spacing:0px;fill:#000000;fill-opacity:1;stroke:none;stroke-width:2.02602077"
       id="text1100">
      <g
         id="g1129"
         transform="matrix(0.5,0,0,0.5,308.10451,-103.0863)">
        <rect
           y="-235.22816"
           x="510.19666"
           height="58.111149"
           width="212.02472"
           id="rect1120"
           style="opacity:1;fill:#f0f0f0;fill-opacity:1;fill-rule:nonzero;stroke:none;stroke-width:2.98368001;stroke-linecap:square;stroke-linejoin:miter;stroke-miterlimit:4;stroke-dasharray:none;stroke-opacity:1;paint-order:fill markers stroke" />
        <g
           style="fill:#8e64ce;fill-opacity:1"
           id="g1118">
          <path
             d="m 553.60496,-206.17259 q 0,6.96951 -1.7829,11.83196 -1.70185,4.86246 -4.78141,7.94201 -2.99851,2.99851 -7.21263,4.3762 -4.13309,1.3777 -8.99554,1.3777 -5.02453,0 -10.1301,-1.21562 v -48.6245 q 5.10557,-1.21562 10.1301,-1.21562 4.86245,0 8.99554,1.3777 4.21412,1.37769 7.21263,4.45724 3.07956,3.07956 4.78141,7.94201 1.7829,4.86245 1.7829,11.75092 z m -26.25723,19.53084 q 2.02602,0.24313 4.13308,0.24313 3.64684,0 6.48327,-1.05353 2.83643,-1.13458 4.78141,-3.48476 1.94498,-2.43123 2.99851,-6.1591 1.05353,-3.80892 1.05353,-9.07658 0,-10.21115 -3.971,-14.99256 -3.88996,-4.78141 -11.58884,-4.78141 -1.05353,0 -2.10706,0.081 -0.97249,0 -1.7829,0.16209 z"
             style="font-style:normal;font-variant:normal;font-weight:normal;font-stretch:normal;font-family:'Ubuntu Mono';-inkscape-font-specification:'Ubuntu Mono';fill:#8e64ce;fill-opacity:1;stroke-width:2.02602077"
             id="path1102"
             inkscape:connector-curvature="0" />
          <path
             d="m 594.12539,-183.15699 q -2.83643,1.62082 -6.07807,2.35019 -3.16059,0.8104 -6.80743,0.8104 -4.45725,0 -8.26617,-1.53977 -3.72787,-1.62082 -6.48326,-4.78141 -2.75539,-3.24164 -4.37621,-8.18513 -1.53978,-4.94349 -1.53978,-11.66988 0,-6.40223 1.62082,-11.26468 1.70186,-4.86245 4.53829,-8.18512 2.83643,-3.32268 6.64535,-5.02454 3.80892,-1.70185 8.10408,-1.70185 2.99851,0 6.07807,0.81041 3.16059,0.8104 6.1591,2.67434 l -1.94498,5.51078 q -5.34869,-3.07955 -10.04906,-3.07955 -3.32268,0 -5.99703,1.45873 -2.5933,1.3777 -4.45724,4.05205 -1.86394,2.67434 -2.91747,6.40222 -0.97249,3.72788 -0.97249,8.34721 0,5.18661 1.05353,8.99553 1.13457,3.80892 3.07955,6.32119 1.94498,2.51227 4.61933,3.72788 2.75539,1.21561 5.91598,1.21561 2.35018,0 4.94349,-0.56728 2.59331,-0.64833 5.3487,-2.18811 z"
             style="font-style:normal;font-variant:normal;font-weight:normal;font-stretch:normal;font-family:'Ubuntu Mono';-inkscape-font-specification:'Ubuntu Mono';fill:#8e64ce;fill-opacity:1;stroke-width:2.02602077"
             id="path1104"
             inkscape:connector-curvature="0" />
          <path
             d="m 628.48671,-181.04993 c -0.5943,-1.45873 -1.29666,-3.10656 -2.10707,-4.94349 -2.66296,-5.78994 -5.09232,-11.38784 -8.83345,-16.93754 -4.50205,7.51088 -7.83473,14.75445 -10.94051,21.88103 h -7.21264 c 4.20107,-9.14709 8.52391,-17.93198 13.85799,-26.50035 l -13.04758,-23.66393 h 7.37472 l 9.80594,19.20668 10.53531,-19.20668 h 7.21263 l -13.29069,23.4208 c 5.5804,9.16196 10.41627,18.14129 14.02006,26.74348 z"
             style="font-style:normal;font-variant:normal;font-weight:normal;font-stretch:normal;font-family:'Ubuntu Mono';-inkscape-font-specification:'Ubuntu Mono';fill:#8e64ce;fill-opacity:1;stroke-width:2.02602077"
             id="path1106"
             inkscape:connector-curvature="0"
             sodipodi:nodetypes="cccccccccccccc" />
          <path
             d="m 646.15361,-231.21421 q 0.97249,5.10557 2.43123,11.18364 1.53977,5.99702 3.16059,12.07508 1.70186,5.99702 3.40371,11.5078 1.70186,5.51078 3.1606,9.64386 1.29665,-4.13308 2.99851,-9.7249 1.7829,-5.59182 3.48476,-11.58884 1.70185,-6.07806 3.16059,-12.07509 1.53977,-5.99702 2.51226,-11.02155 h 6.96952 q -0.64833,3.24163 -2.10706,8.75241 -1.45874,5.42974 -3.48476,12.23717 -2.02602,6.72639 -4.53829,14.34423 -2.43122,7.5368 -5.10557,14.83047 h -8.26617 q -2.51226,-7.29367 -4.94349,-14.83047 -2.35018,-7.5368 -4.37621,-14.26319 -2.02602,-6.80743 -3.48475,-12.31821 -1.45874,-5.51078 -2.18811,-8.75241 z"
             style="font-style:normal;font-variant:normal;font-weight:normal;font-stretch:normal;font-family:'Ubuntu Mono';-inkscape-font-specification:'Ubuntu Mono';fill:#8e64ce;fill-opacity:1;stroke-width:2.02602077"
             id="path1108"
             inkscape:connector-curvature="0" />
          <path
             d="m 701.99075,-225.54135 v 38.81856 h 9.72491 v 5.67286 H 685.6205 v -5.67286 h 9.7249 v -38.81856 h -9.7249 v -5.67286 h 26.09516 v 5.67286 z"
             style="font-style:normal;font-variant:normal;font-weight:normal;font-stretch:normal;font-family:'Ubuntu Mono';-inkscape-font-specification:'Ubuntu Mono';fill:#8e64ce;fill-opacity:1;stroke-width:2.02602077"
             id="path1110"
             inkscape:connector-curvature="0" />
        </g>
      </g>
      <g
         transform="matrix(0.125,0,0,0.125,524.7432,-213.05115)"
         id="g1145"
         inkscape:export-filename="/home/eud/g1145.png"
         inkscape:export-xdpi="468.11429"
         inkscape:export-ydpi="468.11429">
        <rect
           style="opacity:1;fill:#f0f0f0;fill-opacity:1;fill-rule:nonzero;stroke:none;stroke-width:2.98368001;stroke-linecap:square;stroke-linejoin:miter;stroke-miterlimit:4;stroke-dasharray:none;stroke-opacity:1;paint-order:fill markers stroke"
           id="rect1131"
           width="212.02472"
           height="58.111149"
           x="510.19666"
           y="-235.22816" />
        <g
           id="g1143"
           style="fill:#8e64ce;fill-opacity:1">
          <path
             inkscape:connector-curvature="0"
             id="path1133"
             style="font-style:normal;font-variant:normal;font-weight:normal;font-stretch:normal;font-family:'Ubuntu Mono';-inkscape-font-specification:'Ubuntu Mono';fill:#8e64ce;fill-opacity:1;stroke-width:2.02602077"
             d="m 553.60496,-206.17259 q 0,6.96951 -1.7829,11.83196 -1.70185,4.86246 -4.78141,7.94201 -2.99851,2.99851 -7.21263,4.3762 -4.13309,1.3777 -8.99554,1.3777 -5.02453,0 -10.1301,-1.21562 v -48.6245 q 5.10557,-1.21562 10.1301,-1.21562 4.86245,0 8.99554,1.3777 4.21412,1.37769 7.21263,4.45724 3.07956,3.07956 4.78141,7.94201 1.7829,4.86245 1.7829,11.75092 z m -26.25723,19.53084 q 2.02602,0.24313 4.13308,0.24313 3.64684,0 6.48327,-1.05353 2.83643,-1.13458 4.78141,-3.48476 1.94498,-2.43123 2.99851,-6.1591 1.05353,-3.80892 1.05353,-9.07658 0,-10.21115 -3.971,-14.99256 -3.88996,-4.78141 -11.58884,-4.78141 -1.05353,0 -2.10706,0.081 -0.97249,0 -1.7829,0.16209 z" />
          <path
             inkscape:connector-curvature="0"
             id="path1135"
             style="font-style:normal;font-variant:normal;font-weight:normal;font-stretch:normal;font-family:'Ubuntu Mono';-inkscape-font-specification:'Ubuntu Mono';fill:#8e64ce;fill-opacity:1;stroke-width:2.02602077"
             d="m 594.12539,-183.15699 q -2.83643,1.62082 -6.07807,2.35019 -3.16059,0.8104 -6.80743,0.8104 -4.45725,0 -8.26617,-1.53977 -3.72787,-1.62082 -6.48326,-4.78141 -2.75539,-3.24164 -4.37621,-8.18513 -1.53978,-4.94349 -1.53978,-11.66988 0,-6.40223 1.62082,-11.26468 1.70186,-4.86245 4.53829,-8.18512 2.83643,-3.32268 6.64535,-5.02454 3.80892,-1.70185 8.10408,-1.70185 2.99851,0 6.07807,0.81041 3.16059,0.8104 6.1591,2.67434 l -1.94498,5.51078 q -5.34869,-3.07955 -10.04906,-3.07955 -3.32268,0 -5.99703,1.45873 -2.5933,1.3777 -4.45724,4.05205 -1.86394,2.67434 -2.91747,6.40222 -0.97249,3.72788 -0.97249,8.34721 0,5.18661 1.05353,8.99553 1.13457,3.80892 3.07955,6.32119 1.94498,2.51227 4.61933,3.72788 2.75539,1.21561 5.91598,1.21561 2.35018,0 4.94349,-0.56728 2.59331,-0.64833 5.3487,-2.18811 z" />
          <path
             sodipodi:nodetypes="cccccccccccccc"
             inkscape:connector-curvature="0"
             id="path1137"
             style="font-style:normal;font-variant:normal;font-weight:normal;font-stretch:normal;font-family:'Ubuntu Mono';-inkscape-font-specification:'Ubuntu Mono';fill:#8e64ce;fill-opacity:1;stroke-width:2.02602077"
             d="m 628.48671,-181.04993 c -0.5943,-1.45873 -1.29666,-3.10656 -2.10707,-4.94349 -2.66296,-5.78994 -5.09232,-11.38784 -8.83345,-16.93754 -4.50205,7.51088 -7.83473,14.75445 -10.94051,21.88103 h -7.21264 c 4.20107,-9.14709 8.52391,-17.93198 13.85799,-26.50035 l -13.04758,-23.66393 h 7.37472 l 9.80594,19.20668 10.53531,-19.20668 h 7.21263 l -13.29069,23.4208 c 5.5804,9.16196 10.41627,18.14129 14.02006,26.74348 z" />
          <path
             inkscape:connector-curvature="0"
             id="path1139"
             style="font-style:normal;font-variant:normal;font-weight:normal;font-stretch:normal;font-family:'Ubuntu Mono';-inkscape-font-specification:'Ubuntu Mono';fill:#8e64ce;fill-opacity:1;stroke-width:2.02602077"
             d="m 646.15361,-231.21421 q 0.97249,5.10557 2.43123,11.18364 1.53977,5.99702 3.16059,12.07508 1.70186,5.99702 3.40371,11.5078 1.70186,5.51078 3.1606,9.64386 1.29665,-4.13308 2.99851,-9.7249 1.7829,-5.59182 3.48476,-11.58884 1.70185,-6.07806 3.16059,-12.07509 1.53977,-5.99702 2.51226,-11.02155 h 6.96952 q -0.64833,3.24163 -2.10706,8.75241 -1.45874,5.42974 -3.48476,12.23717 -2.02602,6.72639 -4.53829,14.34423 -2.43122,7.5368 -5.10557,14.83047 h -8.26617 q -2.51226,-7.29367 -4.94349,-14.83047 -2.35018,-7.5368 -4.37621,-14.26319 -2.02602,-6.80743 -3.48475,-12.31821 -1.45874,-5.51078 -2.18811,-8.75241 z" />
          <path
             inkscape:connector-curvature="0"
             id="path1141"
             style="font-style:normal;font-variant:normal;font-weight:normal;font-stretch:normal;font-family:'Ubuntu Mono';-inkscape-font-specification:'Ubuntu Mono';fill:#8e64ce;fill-opacity:1;stroke-width:2.02602077"
             d="m 701.99075,-225.54135 v 38.81856 h 9.72491 v 5.67286 H 685.6205 v -5.67286 h 9.7249 v -38.81856 h -9.7249 v -5.67286 h 26.09516 v 5.67286 z" />
        </g>
      </g>
    </g>
  </g>
</svg>
